<svg xmlns="http://www.w3.org/2000/svg" width="50.468" height="45.333" viewBox="0 0 50.468 45.333"><defs><style>.a{fill:#272d3b;}</style></defs><g transform="translate(0 -24.5)"><path class="a" d="M44.244,24.5H6.225A6.232,6.232,0,0,0,0,30.725V54.838a6.232,6.232,0,0,0,6.225,6.225H23.819V67H15.048a1.415,1.415,0,1,0,0,2.829H35.42a1.415,1.415,0,0,0,0-2.829H26.649V61.062H44.244a6.232,6.232,0,0,0,6.225-6.225V30.725A6.225,6.225,0,0,0,44.244,24.5ZM6.225,27.329H44.254a3.4,3.4,0,0,1,3.4,3.4V50.876H2.829V30.725A3.394,3.394,0,0,1,6.225,27.329Zm38.019,30.9H6.225a3.4,3.4,0,0,1-3.4-3.4V53.706H47.639v1.132A3.4,3.4,0,0,1,44.244,58.233Z"/></g></svg>